<svg width="57" height="26" viewBox="0 0 57 26" fill="none" xmlns="http://www.w3.org/2000/svg"><path d="M48.548 25.493H7.985a.923.923 0 0 1-.872-.635L1.05 6.834a.945.945 0 0 1 .573-1.194.885.885 0 0 1 .445-.039.92.92 0 0 1 .788.559c.75 1.735 3.416 7.336 6.527 7.336.038 0 .077-.001.117-.004 1.876-.085 4.81-2.291 8.136-12.317a.924.924 0 0 1 .873-.638c.395 0 .746.257.873.638 1.135 3.419 4.94 12.265 8.891 12.265h.032c1.873-.023 4.753-2.166 7.837-12.244a.924.924 0 0 1 .88-.66h.01c.407.005.763.28.876.679.943 3.308 4.286 11.974 8.387 12.335 2.396.202 5.052-2.562 7.675-8.02a.914.914 0 0 1 1.18-.455c.45.19.678.702.52 1.172l-6.25 18.611a.924.924 0 0 1-.872.635ZM8.644 23.614h39.245L51.5 12.859c-1.746 1.882-3.518 2.722-5.367 2.564-4.541-.403-7.658-7.073-9.107-10.994-2.56 7.282-5.417 10.85-8.701 10.89h-.053c-4.59 0-8.133-7.17-9.738-11.127-2.739 7.366-5.678 11.028-8.953 11.178-1.68.066-3.142-.787-4.4-2.052l3.462 10.296Z" fill="#A07B50" stroke="#1F1C1D" stroke-width=".8"/></svg>